<svg width="12" height="10" viewBox="0 0 12 10" fill="none" xmlns="http://www.w3.org/2000/svg">
<path d="M11.2266 5.5C11.2266 5.92188 10.8984 6.25 10.5 6.25H3.30469L5.76562 8.73438C6.07031 9.01562 6.07031 9.50781 5.76562 9.78906C5.625 9.92969 5.4375 10 5.25 10C5.03906 10 4.85156 9.92969 4.71094 9.78906L0.960938 6.03906C0.65625 5.75781 0.65625 5.26562 0.960938 4.98438L4.71094 1.23438C4.99219 0.929688 5.48438 0.929688 5.76562 1.23438C6.07031 1.51562 6.07031 2.00781 5.76562 2.28906L3.30469 4.75H10.5C10.8984 4.75 11.2266 5.10156 11.2266 5.5Z" fill="white"/>
</svg>
