<svg width="12" height="10" viewBox="0 0 12 10" fill="none" xmlns="http://www.w3.org/2000/svg">
<path d="M11.0156 6.03906L7.26562 9.78906C7.125 9.92969 6.9375 10 6.75 10C6.53906 10 6.35156 9.92969 6.21094 9.78906C5.90625 9.50781 5.90625 9.01562 6.21094 8.73438L8.67188 6.25H1.5C1.07812 6.25 0.75 5.92188 0.75 5.5C0.75 5.10156 1.07812 4.75 1.5 4.75H8.67188L6.21094 2.28906C5.90625 2.00781 5.90625 1.51562 6.21094 1.23438C6.49219 0.929688 6.98438 0.929688 7.26562 1.23438L11.0156 4.98438C11.3203 5.26562 11.3203 5.75781 11.0156 6.03906Z" fill="white"/>
</svg>
