<svg width="13" height="13" viewBox="0 0 13 13" fill="none" xmlns="http://www.w3.org/2000/svg">
<path d="M12.2188 10.9062C12.5703 11.2812 12.5703 11.8672 12.2188 12.2422C11.8438 12.5938 11.2578 12.5938 10.8828 12.2422L8.09375 9.42969C7.13281 10.0625 5.96094 10.3906 4.69531 10.2266C2.53906 9.92188 0.804688 8.16406 0.523438 6.03125C0.125 2.84375 2.82031 0.148438 6.00781 0.546875C8.14062 0.828125 9.89844 2.5625 10.2031 4.71875C10.3672 5.98438 10.0391 7.15625 9.40625 8.09375L12.2188 10.9062ZM2.35156 5.375C2.35156 7.03906 3.6875 8.375 5.35156 8.375C6.99219 8.375 8.35156 7.03906 8.35156 5.375C8.35156 3.73438 6.99219 2.375 5.35156 2.375C3.6875 2.375 2.35156 3.73438 2.35156 5.375Z" fill="white"/>
</svg>
