<svg width="11" height="13" viewBox="0 0 11 13" fill="none" xmlns="http://www.w3.org/2000/svg">
<path d="M9.375 2C9.98438 2 10.5 2.51562 10.5 3.125V11.375C10.5 12.0078 9.98438 12.5 9.375 12.5H1.125C0.492188 12.5 0 12.0078 0 11.375V3.125C0 2.51562 0.492188 2 1.125 2H2.25V0.78125C2.25 0.640625 2.36719 0.5 2.53125 0.5H3.46875C3.60938 0.5 3.75 0.640625 3.75 0.78125V2H6.75V0.78125C6.75 0.640625 6.86719 0.5 7.03125 0.5H7.96875C8.10938 0.5 8.25 0.640625 8.25 0.78125V2H9.375ZM9.23438 11.375C9.30469 11.375 9.375 11.3281 9.375 11.2344V4.25H1.125V11.2344C1.125 11.3281 1.17188 11.375 1.26562 11.375H9.23438Z" fill="#394247"/>
</svg>
