<svg width="15" height="15" viewBox="0 0 15 15" fill="none" xmlns="http://www.w3.org/2000/svg">
<rect x="0.5" y="0.5" width="14" height="14" rx="7" stroke="#394247"/>
<path d="M7.5 4C7.76562 4 8 4.23438 8 4.5V5.0625C8.01562 5.0625 8.04688 5.07812 8.0625 5.07812C8.23438 5.09375 8.71875 5.1875 8.92188 5.23438C9.1875 5.29688 9.35938 5.57812 9.29688 5.84375C9.21875 6.10938 8.95312 6.26562 8.6875 6.20312C8.53125 6.15625 8.09375 6.09375 7.92188 6.0625C7.42188 5.98438 6.98438 6.03125 6.6875 6.14062C6.40625 6.25 6.28125 6.40625 6.25 6.57812C6.21875 6.75 6.25 6.84375 6.28125 6.90625C6.3125 6.96875 6.35938 7.03125 6.48438 7.10938C6.73438 7.28125 7.125 7.39062 7.625 7.53125H7.67188C8.10938 7.65625 8.65625 7.8125 9.0625 8.07812C9.28125 8.21875 9.48438 8.42188 9.60938 8.6875C9.75 8.96875 9.76562 9.28125 9.71875 9.60938C9.60938 10.2031 9.1875 10.6094 8.6875 10.8125C8.46875 10.9062 8.23438 10.9531 8 10.9844V11.5C8 11.7812 7.76562 12 7.5 12C7.21875 12 7 11.7812 7 11.5V10.9688C6.98438 10.9688 6.98438 10.9531 6.96875 10.9531C6.59375 10.9062 5.96875 10.7344 5.54688 10.5469C5.28125 10.4375 5.17188 10.1406 5.28125 9.89062C5.39062 9.64062 5.6875 9.51562 5.9375 9.64062C6.26562 9.78125 6.8125 9.92188 7.125 9.96875C7.625 10.0469 8.03125 10 8.3125 9.89062C8.57812 9.78125 8.6875 9.625 8.73438 9.4375C8.76562 9.26562 8.73438 9.17188 8.70312 9.10938C8.67188 9.04688 8.625 8.98438 8.5 8.90625C8.25 8.73438 7.85938 8.625 7.35938 8.48438H7.3125C6.875 8.35938 6.32812 8.20312 5.92188 7.9375C5.70312 7.79688 5.5 7.59375 5.375 7.32812C5.23438 7.04688 5.21875 6.73438 5.26562 6.39062C5.39062 5.79688 5.82812 5.40625 6.32812 5.20312C6.53125 5.125 6.76562 5.07812 7 5.04688V4.5C7 4.23438 7.21875 4 7.5 4Z" fill="#394247"/>
</svg>
