<svg width="11" height="12" viewBox="0 0 11 12" fill="none" xmlns="http://www.w3.org/2000/svg">
<path d="M7.33594 7.125C9.07031 7.125 10.5 8.55469 10.5 10.2891V10.875C10.5 11.5078 9.98438 12 9.375 12H1.125C0.492188 12 0 11.5078 0 10.875V10.2891C0 8.55469 1.40625 7.125 3.14062 7.125C3.82031 7.125 4.125 7.5 5.25 7.5C6.35156 7.5 6.65625 7.125 7.33594 7.125ZM9.375 10.875V10.2891C9.375 9.16406 8.46094 8.25 7.33594 8.25C6.98438 8.25 6.44531 8.625 5.25 8.625C4.03125 8.625 3.49219 8.25 3.14062 8.25C2.01562 8.25 1.125 9.16406 1.125 10.2891V10.875H9.375ZM5.25 6.75C3.375 6.75 1.875 5.25 1.875 3.375C1.875 1.52344 3.375 0 5.25 0C7.10156 0 8.625 1.52344 8.625 3.375C8.625 5.25 7.10156 6.75 5.25 6.75ZM5.25 1.125C4.00781 1.125 3 2.15625 3 3.375C3 4.61719 4.00781 5.625 5.25 5.625C6.46875 5.625 7.5 4.61719 7.5 3.375C7.5 2.15625 6.46875 1.125 5.25 1.125Z" fill="#394247"/>
</svg>
